<?xml version="1.0" standalone="no"?>
<!DOCTYPE svg PUBLIC "-//W3C//DTD SVG 20010904//EN"
 "http://www.w3.org/TR/2001/REC-SVG-20010904/DTD/svg10.dtd">
<svg version="1.0" xmlns="http://www.w3.org/2000/svg"
 width="204.000000pt" height="192.000000pt" viewBox="0 0 204.000000 192.000000"
 preserveAspectRatio="xMidYMid meet">

<g transform="translate(0.000000,192.000000) scale(0.100000,-0.100000)"
fill="#000000" stroke="none">
<path d="M0 960 l0 -960 560 0 560 0 0 370 0 370 -85 0 -85 0 0 155 0 155 85
0 85 0 0 113 c0 191 32 292 115 365 74 65 113 74 328 80 l187 4 0 -150 0 -150
-111 -4 c-146 -4 -149 -8 -149 -154 l0 -104 130 0 c122 0 130 -1 130 -20 0
-25 -19 -215 -26 -257 l-5 -33 -114 0 -115 0 0 -370 0 -370 275 0 275 0 0 960
0 960 -1020 0 -1020 0 0 -960z"/>
</g>
</svg>
