<?xml version="1.0" standalone="no"?>
<!DOCTYPE svg PUBLIC "-//W3C//DTD SVG 20010904//EN"
 "http://www.w3.org/TR/2001/REC-SVG-20010904/DTD/svg10.dtd">
<svg version="1.0" xmlns="http://www.w3.org/2000/svg"
 width="259.000000pt" height="194.000000pt" viewBox="0 0 259.000000 194.000000"
 preserveAspectRatio="xMidYMid meet">

<g transform="translate(0.000000,194.000000) scale(0.100000,-0.100000)"
fill="#000000" stroke="none">
<path d="M1180 1576 c-166 -38 -324 -151 -398 -284 l-23 -41 100 -75 99 -75
30 53 c40 70 119 140 190 166 47 18 73 21 147 18 78 -3 98 -8 151 -37 l62 -33
78 82 c44 45 80 85 82 89 4 12 -55 54 -123 88 -115 58 -271 77 -395 49z"/>
<path d="M1317 1083 c-4 -3 -7 -55 -7 -115 l0 -108 164 0 c148 0 165 -2 169
-17 4 -14 5 -13 6 4 0 12 -6 28 -13 36 -13 13 -12 15 9 15 13 0 26 -7 29 -14
3 -8 2 -14 -2 -14 -10 0 -9 -46 1 -56 4 -4 7 -14 6 -23 0 -10 -4 -8 -9 7 -13
32 -34 27 -48 -12 -7 -19 -39 -58 -70 -87 -31 -29 -48 -48 -38 -42 21 11 50
-6 136 -83 40 -35 46 -49 29 -73 -6 -9 16 12 49 47 75 78 125 171 116 219 -4
20 -2 33 4 33 6 0 8 -10 5 -22 -3 -18 -2 -20 5 -8 28 42 43 261 22 301 -10 18
-24 19 -284 19 -150 0 -276 -3 -279 -7z m246 -10 l-203 -3 0 -89 0 -88 113 0
c61 0 123 -5 137 -12 19 -8 -5 -9 -105 -5 -71 3 -136 7 -142 9 -9 3 -13 31
-13 94 0 80 -2 90 -17 84 -11 -4 -14 -3 -9 5 5 9 67 11 224 10 l217 -3 -202
-2z m316 -99 c0 -80 -14 -100 -22 -31 -3 23 -8 54 -12 69 -10 38 1 64 20 48
10 -8 14 -34 14 -86z m-32 -86 c-2 -13 -4 -5 -4 17 -1 22 1 32 4 23 2 -10 2
-28 0 -40z m-502 -8 c3 -5 1 -10 -4 -10 -6 0 -11 5 -11 10 0 6 2 10 4 10 3 0
8 -4 11 -10z m511 -48 c-14 -14 -16 -14 -16 -1 0 20 23 44 29 28 2 -6 -4 -18
-13 -27z m-196 -53 c0 -13 -4 -18 -12 -13 -8 5 -9 2 -5 -9 5 -12 1 -17 -13
-17 -19 0 -19 1 -2 34 18 36 32 38 32 5z m112 -66 c-3 -16 -7 -22 -10 -15 -4
13 4 42 11 42 2 0 2 -12 -1 -27z m58 2 c0 -8 -5 -17 -11 -21 -8 -4 -9 1 -4 17
5 18 4 20 -4 9 -5 -8 -13 -11 -18 -7 -9 9 17 28 29 21 4 -3 8 -11 8 -19z
m-233 -4 c2 -24 -28 -53 -45 -42 -10 6 -9 11 4 22 15 11 16 12 10 0 -6 -9 -5
-12 5 -9 8 3 15 11 15 19 4 35 9 40 11 10z m213 -42 c0 -6 -4 -7 -10 -4 -5 3
-10 11 -10 16 0 6 5 7 10 4 6 -3 10 -11 10 -16z m-19 -16 c12 -15 12 -16 -4
-10 -15 6 -17 3 -12 -16 5 -18 4 -19 -5 -5 -5 9 -7 23 -4 32 8 20 8 20 25 -1z
m-131 -23 c0 -5 -4 -10 -10 -10 -5 0 -10 5 -10 10 0 6 5 10 10 10 6 0 10 -4
10 -10z m65 -62 c3 -2 -5 -13 -17 -24 -12 -10 -18 -13 -14 -6 4 7 3 19 -3 26
-8 10 -6 12 9 11 11 -1 22 -4 25 -7z"/>
<path d="M1851 1040 c0 -14 4 -34 9 -45 8 -18 9 -18 9 5 0 14 -4 34 -9 45 -8
18 -9 18 -9 -5z"/>
<path d="M771 693 c7 -12 15 -20 18 -17 3 2 -3 12 -13 22 -17 16 -18 16 -5 -5z"/>
<path d="M796 647 c3 -10 9 -15 12 -12 3 3 0 11 -7 18 -10 9 -11 8 -5 -6z"/>
<path d="M1123 645 c0 -7 6 -11 14 -8 7 3 13 6 13 8 0 2 -6 5 -13 8 -8 3 -14
-1 -14 -8z"/>
<path d="M1455 630 c-3 -5 -1 -10 4 -10 6 0 11 5 11 10 0 6 -2 10 -4 10 -3 0
-8 -4 -11 -10z"/>
<path d="M865 560 c10 -11 20 -20 23 -20 3 0 -3 9 -13 20 -10 11 -20 20 -23
20 -3 0 3 -9 13 -20z"/>
<path d="M1570 439 c0 -5 5 -7 10 -4 6 3 10 8 10 11 0 2 -4 4 -10 4 -5 0 -10
-5 -10 -11z"/>
<path d="M1470 400 c-8 -5 -10 -10 -5 -10 6 0 17 5 25 10 8 5 11 10 5 10 -5 0
-17 -5 -25 -10z"/>
<path d="M1248 373 c12 -2 32 -2 45 0 12 2 2 4 -23 4 -25 0 -35 -2 -22 -4z"/>
</g>
</svg>
